<?xml version="1.0" encoding="iso-8859-1"?>
<!-- Generator: Adobe Illustrator 19.0.0, SVG Export Plug-In . SVG Version: 6.00 Build 0)  -->
<svg version="1.1" id="Layer_1" xmlns="http://www.w3.org/2000/svg" xmlns:xlink="http://www.w3.org/1999/xlink" x="0px" y="0px"
	 viewBox="0 0 512 512" style="enable-background:new 0 0 512 512;" xml:space="preserve">
<rect x="14.59" y="135.102" style="fill:#FEE187;" width="400.445" height="61.292"/>
<path style="fill:#FFC61B;" d="M497.41,60.399H14.59C6.532,60.399,0,66.933,0,74.989s6.532,14.59,14.59,14.59H482.82v332.842H29.18
	V210.98h385.848c8.058,0,14.59-6.533,14.59-14.59v-61.292c0-8.056-6.532-14.59-14.59-14.59H14.59c-8.058,0-14.59,6.533-14.59,14.59
	v301.912c0,8.056,6.532,14.59,14.59,14.59h482.82c8.058,0,14.59-6.533,14.59-14.59V74.989C512,66.933,505.468,60.399,497.41,60.399z
	 M29.18,149.69h371.258v32.112H29.18v-16.05V149.69z"/>
<path style="fill:#FEE187;" d="M284.373,246.881h-56.748c38.26,0,69.275,31.015,69.275,69.275s-31.016,69.275-69.275,69.275h56.748
	c38.26,0,69.275-31.015,69.275-69.275l0,0C353.649,277.896,322.634,246.881,284.373,246.881z"/>
<path style="fill:#FFC61B;" d="M284.373,232.292h-56.748c-46.244,0-83.865,37.621-83.865,83.865s37.623,83.865,83.865,83.865h56.748
	c46.244,0,83.865-37.621,83.865-83.865S330.617,232.292,284.373,232.292z M242.216,263.463c23.09,6.402,40.096,27.594,40.096,52.694
	c0,25.1-17.006,46.292-40.096,52.694V263.463z M172.94,316.157c0-25.102,17.006-46.292,40.096-52.694V368.85
	C189.946,362.45,172.94,341.258,172.94,316.157z M291.562,370.372c0.136-0.159,0.263-0.327,0.397-0.487
	c0.338-0.404,0.668-0.817,0.999-1.228c0.473-0.587,0.94-1.177,1.396-1.777c0.328-0.43,0.649-0.865,0.97-1.303
	c0.441-0.601,0.872-1.209,1.297-1.824c0.308-0.446,0.614-0.893,0.915-1.345c0.417-0.63,0.823-1.268,1.224-1.908
	c0.28-0.449,0.563-0.896,0.836-1.35c0.407-0.68,0.798-1.37,1.188-2.063c0.242-0.43,0.49-0.855,0.724-1.29
	c0.433-0.804,0.845-1.622,1.252-2.441c0.166-0.334,0.341-0.661,0.503-0.996c0.557-1.158,1.088-2.331,1.593-3.518
	c0.114-0.268,0.213-0.543,0.325-0.811c0.382-0.928,0.757-1.859,1.107-2.803c0.166-0.446,0.315-0.902,0.473-1.351
	c0.274-0.779,0.544-1.558,0.795-2.348c0.16-0.505,0.308-1.014,0.458-1.523c0.223-0.748,0.441-1.498,0.642-2.256
	c0.142-0.533,0.274-1.068,0.407-1.605c0.184-0.75,0.359-1.503,0.524-2.261c0.118-0.544,0.23-1.09,0.337-1.637
	c0.15-0.767,0.286-1.539,0.414-2.313c0.09-0.546,0.182-1.09,0.261-1.638c0.117-0.804,0.214-1.612,0.309-2.423
	c0.061-0.525,0.128-1.049,0.179-1.577c0.088-0.899,0.149-1.803,0.207-2.709c0.029-0.445,0.07-0.887,0.09-1.335
	c0.066-1.358,0.104-2.722,0.104-4.097s-0.038-2.738-0.104-4.097c-0.022-0.448-0.063-0.89-0.09-1.335
	c-0.058-0.906-0.12-1.812-0.207-2.709c-0.051-0.528-0.118-1.052-0.179-1.577c-0.093-0.81-0.191-1.619-0.309-2.423
	c-0.08-0.549-0.171-1.093-0.261-1.638c-0.128-0.775-0.264-1.547-0.414-2.312c-0.107-0.547-0.22-1.093-0.337-1.637
	c-0.163-0.759-0.339-1.512-0.524-2.261c-0.131-0.537-0.264-1.072-0.407-1.605c-0.201-0.757-0.42-1.507-0.642-2.256
	c-0.152-0.509-0.298-1.02-0.458-1.523c-0.251-0.789-0.522-1.568-0.795-2.347c-0.158-0.451-0.308-0.905-0.473-1.351
	c-0.35-0.944-0.725-1.876-1.107-2.803c-0.111-0.268-0.212-0.544-0.325-0.811c-0.505-1.186-1.036-2.359-1.593-3.518
	c-0.162-0.336-0.338-0.662-0.503-0.996c-0.407-0.82-0.818-1.637-1.252-2.441c-0.235-0.435-0.483-0.859-0.724-1.29
	c-0.388-0.693-0.779-1.383-1.188-2.063c-0.273-0.455-0.554-0.902-0.836-1.35c-0.401-0.64-0.807-1.278-1.224-1.908
	c-0.301-0.452-0.607-0.899-0.915-1.345c-0.425-0.613-0.858-1.221-1.297-1.824c-0.319-0.438-0.642-0.872-0.97-1.303
	c-0.457-0.6-0.925-1.189-1.396-1.777c-0.331-0.411-0.661-0.823-0.999-1.228c-0.134-0.16-0.261-0.328-0.397-0.487
	c26.769,3.531,47.497,26.498,47.497,54.216S318.331,366.843,291.562,370.372z"/>
<g>
</g>
<g>
</g>
<g>
</g>
<g>
</g>
<g>
</g>
<g>
</g>
<g>
</g>
<g>
</g>
<g>
</g>
<g>
</g>
<g>
</g>
<g>
</g>
<g>
</g>
<g>
</g>
<g>
</g>
</svg>
