<?xml version="1.0" encoding="iso-8859-1"?>
<!-- Generator: Adobe Illustrator 19.0.0, SVG Export Plug-In . SVG Version: 6.00 Build 0)  -->
<svg version="1.1" id="Capa_1" xmlns="http://www.w3.org/2000/svg" xmlns:xlink="http://www.w3.org/1999/xlink" x="0px" y="0px"
	 viewBox="0 0 511.998 511.998" style="enable-background:new 0 0 511.998 511.998;" xml:space="preserve">
<path style="fill:#E7E8E3;" d="M503.916,397.661c0,16.188-13.122,29.311-29.309,29.311H37.393
	c-16.188,0-29.309-13.124-29.309-29.311V114.336c0-16.188,13.122-29.31,29.309-29.31h437.212c16.188,0,29.309,13.123,29.309,29.31
	v283.326L503.916,397.661L503.916,397.661z"/>
<g style="opacity:0.15;">
	<path style="fill:#202121;" d="M28.922,397.661V114.336c0-16.188,13.124-29.31,29.311-29.31h-20.84
		c-16.187,0-29.309,13.123-29.309,29.31v283.326c0,16.188,13.122,29.311,29.309,29.311h20.84
		C42.047,426.973,28.922,413.849,28.922,397.661z"/>
</g>
<path style="fill:#202121;" d="M474.607,435.057H37.393C16.775,435.057,0,418.282,0,397.661V114.336
	c0-20.619,16.775-37.394,37.393-37.394h437.212c20.619,0,37.393,16.775,37.393,37.394v31.459c0,4.465-3.618,8.084-8.084,8.084
	s-8.084-3.62-8.084-8.084v-31.459c0-11.704-9.522-21.226-21.225-21.226H37.393c-11.703,0-21.225,9.522-21.225,21.226v283.326
	c0,11.705,9.522,21.227,21.225,21.227h437.212c11.703,0,21.225-9.522,21.225-21.227V172.025c0-4.465,3.618-8.084,8.084-8.084
	c4.466,0,8.084,3.62,8.084,8.084v225.637C512,418.282,495.226,435.057,474.607,435.057z"/>
<path style="fill:#EA001B;" d="M225.707,220.352c0-25.645,11.813-48.527,30.293-63.51c-14.046-11.388-31.94-18.219-51.43-18.219
	c-45.137,0-81.728,36.59-81.728,81.729c0,45.136,36.591,81.725,81.728,81.725c19.489,0,37.384-6.826,51.43-18.213
	C237.519,268.876,225.707,245.996,225.707,220.352z"/>
<path style="fill:#0099DF;" d="M307.432,138.621c-19.492,0-37.386,6.831-51.432,18.219c18.481,14.983,30.294,37.864,30.294,63.51
	c0,25.643-11.814,48.524-30.294,63.511c14.046,11.387,31.94,18.213,51.432,18.213c45.137,0,81.726-36.589,81.726-81.725
	C389.158,175.214,352.569,138.621,307.432,138.621z"/>
<path style="fill:#6C6BBD;" d="M286.294,220.352c0-25.645-11.814-48.527-30.294-63.51c-18.48,14.983-30.293,37.864-30.293,63.51
	c0,25.643,11.813,48.524,30.293,63.511C274.48,268.876,286.294,245.996,286.294,220.352z"/>
<g>
	<path style="fill:#202121;" d="M307.432,130.539c-15.31,0-30.549,4.012-43.903,11.491c-1.722,0.965-3.414,1.987-5.069,3.062
		c-0.694,0.451-1.407,1.102-2.156,1.447c-0.543,0.25-0.172,0.185-0.609,0c-0.195-0.083-0.428-0.294-0.612-0.419
		c-0.46-0.313-0.923-0.621-1.388-0.925c-3.2-2.09-6.534-3.975-9.975-5.642c-6.868-3.326-14.157-5.779-21.641-7.276
		c-13.199-2.64-26.968-2.261-40,1.112c-11.509,2.979-22.379,8.281-31.835,15.485c-9.314,7.097-17.227,16.006-23.161,26.101
		c-6.064,10.315-10.023,21.83-11.571,33.696c-1.599,12.254-0.659,24.824,2.787,36.692c3.294,11.347,8.868,22.002,16.276,31.205
		c7.375,9.162,16.537,16.863,26.844,22.532c10.519,5.786,22.183,9.414,34.128,10.611c14.561,1.459,29.398-0.701,42.948-6.232
		c3.533-1.442,6.976-3.11,10.298-4.988c1.718-0.971,3.405-1.999,5.056-3.083c0.361-0.237,0.721-0.477,1.08-0.72
		c0.179-0.121,0.833-0.735,1.07-0.735c0.281,0,0.984,0.678,1.223,0.84c0.41,0.276,0.822,0.549,1.236,0.818
		c6.454,4.196,13.449,7.555,20.756,9.978c13.509,4.48,28.031,5.693,42.094,3.501c11.842-1.845,23.27-6.101,33.444-12.434
		c9.939-6.186,18.647-14.316,25.505-23.803c6.948-9.611,11.967-20.586,14.655-32.137c2.806-12.055,3.077-24.689,0.811-36.856
		c-2.18-11.703-6.731-22.929-13.289-32.862c-6.476-9.809-14.874-18.325-24.589-24.939c-9.827-6.689-20.969-11.399-32.625-13.75
		C319.369,131.129,313.401,130.539,307.432,130.539z M268.939,184.557c7.349,13.198,10.484,28.668,8.843,43.687
		c-1.676,15.342-8.15,29.92-18.502,41.377c-0.599,0.664-1.214,1.315-1.835,1.959c-0.337,0.349-0.677,0.698-1.025,1.037
		c-0.059,0.058-0.342,0.401-0.419,0.401c-0.116,0.001-0.603-0.581-0.716-0.693c-1.362-1.357-2.668-2.778-3.915-4.242
		c-2.53-2.969-4.845-6.135-6.874-9.467c-3.928-6.451-6.833-13.509-8.613-20.848c-3.625-14.943-2.356-30.564,3.204-44.858
		c2.76-7.097,6.819-13.707,11.669-19.561c1.213-1.463,2.488-2.87,3.808-4.236c0.331-0.343,0.664-0.684,1.006-1.018
		c0.518-0.506,0.538-0.321,1.001,0.136c0.755,0.744,1.484,1.516,2.203,2.295c2.64,2.861,5.081,5.935,7.213,9.193
		C267.024,181.305,268.017,182.904,268.939,184.557C269.036,184.732,268.409,183.607,268.939,184.557z M204.57,293.993
		c-17.202,0-34.072-6.147-47.253-17.199c-12.968-10.874-21.983-26.13-25.119-42.772c-3.226-17.115-0.212-35.133,8.464-50.236
		c8.372-14.575,21.722-26.075,37.401-32.145c18.578-7.192,39.706-6.405,57.748,2.034c2.519,1.178,4.97,2.5,7.339,3.956
		c-12.589,12.87-21.172,29.535-24.202,47.293c-3.055,17.906-0.689,36.482,6.883,53.002c4.263,9.301,10.181,17.855,17.335,25.168
		C231.603,290.255,218.163,293.993,204.57,293.993z M307.432,293.993c-13.593,0-27.034-3.738-38.598-10.901
		c12.633-12.94,21.241-29.647,24.25-47.495c3.029-17.965,0.593-36.573-7.05-53.115c-4.246-9.19-10.128-17.63-17.2-24.868
		c17.418-10.793,39.12-13.712,58.806-8.086c16.208,4.632,30.548,14.933,40.198,28.744c9.962,14.257,14.557,31.844,12.9,49.155
		c-1.629,17.015-9.33,33.14-21.457,45.173c-12.098,12.007-28.235,19.576-45.221,21.098
		C311.855,293.895,309.644,293.993,307.432,293.993z"/>
	<path style="fill:#202121;" d="M130.209,337.953c-6.135,0-12.014,3.256-15.869,8.754c-3.994-5.575-9.733-8.754-15.858-8.754
		c-3.675,0-7.732,1.687-11.221,4.651l-1.663-3.075c-0.094-0.174-0.276-0.282-0.473-0.282H75.002c-0.298,0-0.539,0.241-0.539,0.539
		v46.489c0,0.297,0.241,0.539,0.539,0.539h12.522c0.297,0,0.539-0.241,0.539-0.539v-26.681c1.393-5.313,4.777-8.482,9.063-8.482
		c5.315,0,9.478,5.306,9.478,12.081v23.082c0,0.297,0.241,0.539,0.539,0.539h11.689c0.297,0,0.539-0.241,0.539-0.539v-23.819
		c0.195-5.456,3.836-11.344,9.377-11.344c5.315,0,9.478,5.306,9.478,12.081v23.082c0,0.297,0.241,0.539,0.539,0.539h11.689
		c0.298,0,0.539-0.241,0.539-0.539v-23.082C150.991,349.275,141.669,337.953,130.209,337.953z"/>
	<path style="fill:#202121;" d="M207.95,339.247h-10.019c-0.249,0-0.468,0.171-0.524,0.415l-0.842,3.568
		c-4.266-3.478-9.602-5.384-15.122-5.384c-13.475,0-24.438,11.274-24.438,25.131c0,13.857,10.963,25.131,24.438,25.131
		c5.427,0,10.674-1.842,14.905-5.211v3.377c0,0.298,0.241,0.539,0.539,0.539h11.064c0.298,0,0.539-0.241,0.539-0.539v-46.488
		C208.489,339.489,208.247,339.247,207.95,339.247z M183.112,375.058c-2.99,0-5.743-1.212-7.945-3.485
		c-2.133-2.414-3.307-5.467-3.307-8.596c0-3.187,1.202-6.316,3.291-8.578c2.219-2.292,4.971-3.503,7.962-3.503
		c2.98,0,5.768,1.241,7.857,3.503c2.123,2.194,3.293,5.24,3.293,8.578c0,3.285-1.142,6.254-3.302,8.588
		C188.879,373.818,186.091,375.058,183.112,375.058z"/>
	<path style="fill:#202121;" d="M239.67,337.629c-13.474,0-24.436,11.322-24.436,25.239c0,13.918,10.962,25.24,24.436,25.24
		c7.199,0,13.932-3.217,18.474-8.829c0.095-0.116,0.136-0.267,0.114-0.416c-0.022-0.149-0.103-0.281-0.226-0.366l-9.811-6.795
		c-0.219-0.15-0.511-0.121-0.695,0.069c-2.021,2.09-4.694,3.288-7.335,3.288c-2.916,0-5.554-1.243-7.633-3.595
		c-0.905-1.02-1.636-2.214-2.225-3.634h32.818c0.255,0,0.475-0.18,0.527-0.429c0.296-1.435,0.429-2.832,0.429-4.531
		C264.107,348.952,253.145,337.629,239.67,337.629z M230.095,358.556c0.618-1.676,1.464-3.183,2.457-4.381
		c2.081-2.253,4.794-3.493,7.64-3.493c2.835,0,5.579,1.271,7.531,3.488c1.099,1.223,1.954,2.728,2.495,4.386L230.095,358.556
		L230.095,358.556z"/>
	<path style="fill:#202121;" d="M293.174,358.154c-1.025-0.36-2.038-0.675-3.001-0.974c-4.212-1.309-6.579-2.157-6.243-4.382
		c0.275-2.18,1.635-3.332,3.932-3.332c2.726,0,6.474,1.658,10.552,4.668c0.121,0.088,0.275,0.123,0.423,0.096
		c0.149-0.029,0.278-0.117,0.357-0.247l6.052-9.814c0.156-0.252,0.078-0.583-0.174-0.741c-6.063-3.783-10.339-5.583-18.235-5.583
		c-9.409,0-16.506,6.307-16.506,14.668c0,9.461,6.585,12.321,15.193,15.074c3.746,1.209,6.201,2.218,6.201,5.096
		c0,2.174-1.631,3.472-4.362,3.472c-2.827,0-7.478-1.594-11.281-6.086c-0.099-0.116-0.243-0.185-0.396-0.191
		c-0.141,0.01-0.299,0.057-0.405,0.166l-8.347,8.736c-0.201,0.209-0.199,0.539,0.002,0.747c5.352,5.532,13.087,8.578,21.781,8.578
		c9.125,0,17.131-7.057,17.131-15.101C305.848,366.023,301.221,360.607,293.174,358.154z"/>
	<path style="fill:#202121;" d="M344.546,339.247h-9.897v-16.719c0-0.297-0.241-0.539-0.539-0.539h-13.253
		c-0.298,0-0.539,0.241-0.539,0.539v16.719h-8.855c-0.297,0-0.539,0.241-0.539,0.539v12.62c0,0.297,0.241,0.539,0.539,0.539h8.855
		v33.33c0,0.298,0.241,0.539,0.539,0.539h13.253c0.298,0,0.539-0.241,0.539-0.539v-33.33h9.897c0.298,0,0.539-0.241,0.539-0.539
		v-12.62C345.085,339.489,344.843,339.247,344.546,339.247z"/>
	<path style="fill:#202121;" d="M387.721,339.385c-2.416-0.868-5.113-1.325-7.801-1.325c-6.398,0-11.819,2.144-15.053,5.915
		l-1.555-4.372c-0.075-0.215-0.279-0.358-0.508-0.358h-10.122c-0.298,0-0.539,0.241-0.539,0.539v46.488
		c0,0.298,0.241,0.539,0.539,0.539h13.045c0.297,0,0.539-0.241,0.539-0.539l-0.009-25.575c0.998-5.471,5.632-9.442,11.019-9.442
		c1.659,0,3.317,0.37,4.927,1.099c0.132,0.061,0.282,0.063,0.418,0.012c0.135-0.053,0.244-0.157,0.3-0.291l5.114-11.972
		c0.058-0.137,0.058-0.291-0.002-0.427C387.973,339.543,387.861,339.437,387.721,339.385z"/>
	<path style="fill:#202121;" d="M414.983,337.846c-13.992,0-25.377,11.274-25.377,25.131c0,13.857,11.384,25.131,25.377,25.131
		c14.288,0,25.48-11.039,25.48-25.131C440.463,349.12,429.032,337.846,414.983,337.846z M415.086,375.165
		c-2.969,0-5.787-1.27-7.751-3.503c-2.255-2.33-3.398-5.253-3.398-8.686c0-3.365,1.204-6.408,3.423-8.605
		c1.914-2.278,4.732-3.584,7.726-3.584c3.064,0,5.741,1.213,7.954,3.602c2.061,2.231,3.196,5.243,3.196,8.479
		c0,3.344-1.138,6.473-3.187,8.793C420.798,373.987,418.119,375.165,415.086,375.165z"/>
</g>
<g>
</g>
<g>
</g>
<g>
</g>
<g>
</g>
<g>
</g>
<g>
</g>
<g>
</g>
<g>
</g>
<g>
</g>
<g>
</g>
<g>
</g>
<g>
</g>
<g>
</g>
<g>
</g>
<g>
</g>
</svg>
